<svg width="32" height="30" viewBox="0 0 32 30" fill="none" xmlns="http://www.w3.org/2000/svg">
<g clip-path="url(#clip0_222_37)">
<path d="M9.62918 5.41219C10.2681 5.42722 10.8469 4.85594 10.8319 4.217C10.8319 3.18718 10.8394 2.14985 10.8319 1.12003C10.8018 0.435993 10.1027 -0.120259 9.42622 0.0150455C8.86997 0.0977316 8.41895 0.623915 8.43399 1.1952C8.43399 2.20247 8.43399 3.20973 8.43399 4.20948C8.41144 4.85594 8.99024 5.42722 9.62918 5.41219Z" fill="#F6F6F7"/>
<path d="M21.6562 5.41219C22.2952 5.42722 22.8664 4.85594 22.8589 4.217C22.8589 3.18718 22.8664 2.14985 22.8589 1.12003C22.8364 0.435993 22.1298 -0.120259 21.4533 0.0150455C20.897 0.105248 20.446 0.631432 20.461 1.1952C20.461 2.20247 20.461 3.20973 20.461 4.20948C20.4385 4.85594 21.0173 5.42722 21.6562 5.41219Z" fill="#F6F6F7"/>
<path d="M31.2779 10.8243H0.00750732C0.00750732 14.7858 0.00750732 19.0178 0.00750732 23.0093V26.5873C0.00750732 28.4665 1.53344 29.9925 3.41267 29.9925H6.81783C13.1396 29.9925 19.4688 29.9925 25.7905 29.9925C25.8507 29.9925 25.9108 29.9925 25.9784 29.9925H27.8802C29.7594 29.9925 31.2854 28.4665 31.2854 26.5873V23.0093H31.2779C31.2779 19.0178 31.2779 14.7933 31.2779 10.8243ZM21.2202 19.0178C21.1676 19.4462 20.8444 19.7619 20.4986 19.9799L18.7321 21.2503C18.9727 21.9945 19.2132 22.7311 19.4538 23.4753C19.6041 23.8662 19.5966 24.3322 19.341 24.678C18.9952 25.2042 18.2135 25.3545 17.7023 25.0012C17.0108 24.5126 16.3342 24.009 15.6427 23.5129C15.0113 23.9714 14.3874 24.4224 13.7559 24.881C13.538 25.0463 13.2899 25.1816 13.0118 25.1967C12.5532 25.2343 12.0947 24.9862 11.8692 24.5878C11.6963 24.2871 11.6738 23.9188 11.7865 23.5956C12.0346 22.8213 12.2901 22.0471 12.5382 21.2728C11.8692 20.7767 11.1927 20.2956 10.5162 19.7995C10.0877 19.4913 9.9148 18.8825 10.1178 18.4014C10.2831 17.9579 10.7341 17.6497 11.2077 17.6422C12.0421 17.6347 12.884 17.6422 13.7259 17.6422C13.989 16.8454 14.237 16.0486 14.5001 15.2593C14.6655 14.7632 15.1917 14.4174 15.7103 14.4625C16.1764 14.4851 16.6124 14.8158 16.7627 15.2593C17.0258 16.0486 17.2814 16.8454 17.5369 17.6347C17.5369 17.6422 17.5445 17.6422 17.5445 17.6422C18.3939 17.6497 19.2508 17.6347 20.1002 17.6497C20.7993 17.6572 21.348 18.3488 21.2202 19.0178Z" fill="#F6F6F7"/>
<path d="M25.9409 2.41291C25.317 2.39036 24.6855 2.42795 24.0616 2.41291C24.0541 3.10447 24.0842 3.80354 24.0466 4.4951C23.9339 5.67525 22.8439 6.64493 21.6637 6.62238C20.4836 6.65245 19.3861 5.67525 19.2734 4.50261C19.2358 3.81106 19.2659 3.11199 19.2583 2.42043H12.0421C12.0346 3.11199 12.0646 3.81106 12.0271 4.50261C11.9143 5.68277 10.8244 6.65245 9.6442 6.6299C8.46404 6.65997 7.36657 5.69029 7.25382 4.51013C7.21624 3.81858 7.2463 3.1195 7.23879 2.42043C6.61488 2.42043 5.98346 2.42043 5.35956 2.42043H3.48033C1.54848 2.41291 0 3.9614 0 5.87069V8.1859C0 8.66698 0.0225507 9.14807 0.00751691 9.62163H31.2779C31.2628 9.14807 31.2854 8.66698 31.2854 8.1859V5.87069C31.2854 3.9614 29.7369 2.4054 27.8201 2.4054H25.9409V2.41291Z" fill="#32CAFD"/>
</g>
<defs>
<clipPath id="clip0_222_37">
<rect width="31.2779" height="30" fill="white"/>
</clipPath>
</defs>
</svg>
