<svg width="23" height="30" viewBox="0 0 23 30" fill="none" xmlns="http://www.w3.org/2000/svg">
<g clip-path="url(#clip0_222_31)">
<path d="M2.53711 0H14.0625C14.0625 2.05078 14.0625 4.10742 14.0625 6.1582C14.0566 6.93164 14.4199 7.69336 15.0234 8.18555C15.5039 8.58984 16.1309 8.80078 16.7578 8.79492C18.791 8.79492 20.8184 8.79492 22.8516 8.79492C22.8516 14.9883 22.8516 21.1816 22.8516 27.3691C22.8574 28.2715 22.3594 29.1562 21.5859 29.6191C21.2344 29.8418 20.8301 29.9531 20.4199 30.0059H2.4082C1.95117 29.9355 1.5 29.8008 1.125 29.5254C0.427732 29.0391 -0.00586176 28.207 -2.38923e-06 27.3633C-2.38923e-06 19.1602 -2.38923e-06 10.957 -2.38923e-06 2.75391C-2.38923e-06 2.4375 0.0292945 2.12109 0.128904 1.82227C0.451169 0.791016 1.45898 0.0351562 2.53711 0ZM5.98828 12.3809C5.54297 12.457 5.20898 12.9199 5.28515 13.3652C5.33789 13.7871 5.73047 14.127 6.1582 14.1211C9.65039 14.1211 13.1484 14.1211 16.6465 14.1211C16.9219 14.1328 17.2031 14.0215 17.3789 13.8047C17.5898 13.5586 17.6484 13.1953 17.5137 12.9023C17.3848 12.5859 17.0508 12.3633 16.7109 12.3633C13.2949 12.3633 9.87304 12.3633 6.45703 12.3633C6.29297 12.3633 6.14062 12.3516 5.98828 12.3809ZM5.98828 15.8965C5.44336 15.9844 5.10351 16.6406 5.36133 17.1328C5.50781 17.4551 5.85937 17.6543 6.21094 17.6367C9.70898 17.6367 13.2012 17.6367 16.6992 17.6367C17.0625 17.6367 17.4141 17.3965 17.5254 17.0508C17.6836 16.6465 17.4727 16.1426 17.0742 15.9668C16.8516 15.8496 16.5937 15.8848 16.3535 15.8789C13.0723 15.8789 9.79101 15.8789 6.50976 15.8789C6.33398 15.8789 6.1582 15.8672 5.98828 15.8965ZM5.98828 19.4121C5.54297 19.4883 5.20898 19.9512 5.28515 20.3965C5.33789 20.8184 5.73047 21.1582 6.1582 21.1523C9.55664 21.1523 12.9551 21.1523 16.3535 21.1523C16.623 21.1523 16.9219 21.1816 17.1562 21.0234C17.5781 20.7832 17.7129 20.1738 17.4258 19.7812C17.2559 19.5234 16.9453 19.3828 16.6406 19.3945C13.2598 19.3945 9.88476 19.3945 6.5039 19.3945C6.33398 19.3945 6.1582 19.3828 5.98828 19.4121ZM5.98828 22.9277C5.54297 23.0039 5.20898 23.4668 5.28515 23.918C5.33789 24.3398 5.73047 24.6797 6.15234 24.6738C8.47851 24.6738 10.7988 24.6738 13.125 24.6738C13.4121 24.6855 13.7109 24.5566 13.8809 24.3223C14.0859 24.0586 14.1152 23.6719 13.957 23.3789C13.8105 23.0977 13.5 22.9102 13.1836 22.916C10.9395 22.916 8.68945 22.916 6.44531 22.916C6.29297 22.9102 6.14062 22.9043 5.98828 22.9277Z" fill="#F6F6F7"/>
<path d="M15.8203 0.521484C17.9941 2.68945 20.1621 4.86328 22.3359 7.03125C20.4551 7.03125 18.5801 7.03125 16.6992 7.03125C16.3359 7.03125 15.9902 6.79102 15.8731 6.44531C15.8086 6.27539 15.8203 6.09375 15.8203 5.91797C15.8203 4.11914 15.8203 2.32031 15.8203 0.521484Z" fill="#41E88D"/>
</g>
<defs>
<clipPath id="clip0_222_31">
<rect width="22.8516" height="30" fill="white"/>
</clipPath>
</defs>
</svg>
