<svg width="38" height="30" viewBox="0 0 38 30" fill="none" xmlns="http://www.w3.org/2000/svg">
<g clip-path="url(#clip0_222_25)">
<path d="M5.75699 0.303783C6.29046 0.0444596 6.89801 -0.00740501 7.48334 4.22692e-06C10.9879 4.22692e-06 14.4999 4.22692e-06 18.0045 4.22692e-06C18.2119 -0.0148142 18.412 0.0666874 18.5379 0.2371C19.427 1.28921 20.3087 2.34873 21.1978 3.40084C25.5174 3.40084 29.8296 3.40084 34.1492 3.40084C34.5937 3.40084 35.0383 3.38603 35.4754 3.46753C36.12 3.60089 36.7128 3.94172 37.1499 4.43814C37.6464 4.97901 37.8983 5.70512 37.9279 6.43863V23.065C37.8909 23.6429 37.7204 24.2134 37.387 24.6876C36.9054 25.4137 36.0978 25.8879 35.2458 26.0064C35.2458 20.983 35.2458 15.9521 35.2458 10.9286C35.2532 10.3285 35.2383 9.72092 35.0457 9.15041C34.616 7.70561 33.386 6.54236 31.9264 6.18672C31.2966 6.0163 30.6446 6.05335 30 6.05335C25.9323 6.05335 21.8573 6.05335 17.7896 6.05335C17.1302 5.26797 16.4708 4.49 15.8187 3.70462C15.5742 3.40825 15.3297 3.08966 14.9889 2.89702C14.6703 2.70438 14.2924 2.65251 13.922 2.65251C10.6249 2.65251 7.32775 2.65251 4.03064 2.65251C4.17882 1.65226 4.83084 0.733519 5.75699 0.303783Z" fill="#DF2DB1"/>
<path d="M1.73376 4.28254C2.20795 4.04544 2.74142 3.96394 3.26747 3.96394C6.84614 3.96394 10.4322 3.96394 14.0109 3.96394C14.2035 3.94912 14.3961 4.03804 14.5147 4.19363C15.4112 5.25315 16.2929 6.31267 17.1894 7.36478C21.7387 7.36478 26.2806 7.35737 30.8298 7.37219C31.9931 7.35737 33.1267 8.04643 33.6231 9.09854C33.9195 9.68387 33.9565 10.3507 33.9417 10.9953C33.9417 16.2336 33.9417 21.4646 33.9417 26.7029C33.9343 27.1326 33.8973 27.5772 33.7417 27.9847C33.4379 28.8368 32.7266 29.5406 31.8597 29.8296C31.3114 30.0222 30.7261 30.0074 30.1556 30.0074C21.3386 30.0074 12.5216 30.0074 3.70462 30.0074C3.09706 30.0148 2.46728 30.0148 1.89676 29.7703C0.792788 29.3332 0.0370462 28.207 0 27.0289V6.98691C0.0296369 5.8533 0.703878 4.76414 1.73376 4.28254Z" fill="#F6F6F7"/>
</g>
<defs>
<clipPath id="clip0_222_25">
<rect width="37.9353" height="30" fill="white"/>
</clipPath>
</defs>
</svg>
