<svg width="48" height="45" viewBox="0 0 48 45" fill="none" xmlns="http://www.w3.org/2000/svg">
<g clip-path="url(#clip0_195_418)">
<path d="M23.6049 0.0561697C24.4289 -0.196639 25.3465 0.477518 25.3746 1.33894C25.3839 2.90261 25.3746 4.46628 25.3746 6.03932C25.3933 6.68538 24.897 7.30336 24.2603 7.42508C23.4551 7.62171 22.5937 6.95692 22.5749 6.13295C22.5656 4.56928 22.5749 3.00561 22.5656 1.44194C22.5468 0.805233 22.9963 0.215346 23.6049 0.0561697Z" fill="#DF2DB1"/>
<path d="M13.3146 3.33332C13.7922 3.20223 14.3352 3.35204 14.6817 3.70785C15.8989 4.92508 17.1161 6.14231 18.3334 7.35017C18.7173 7.69661 18.9139 8.23968 18.7922 8.7453C18.6798 9.28837 18.2116 9.71909 17.6686 9.81272C17.2285 9.88762 16.7603 9.74718 16.442 9.43819C15.206 8.20223 13.9794 6.96628 12.7435 5.73968C12.4158 5.4307 12.2285 4.97189 12.2847 4.52246C12.3408 3.96066 12.7622 3.4644 13.3146 3.33332Z" fill="#DF2DB1"/>
<path d="M33.9045 3.33333C34.5131 3.16479 35.2247 3.45506 35.5056 4.03558C35.7959 4.56929 35.6835 5.27153 35.2434 5.69288C33.9981 6.9382 32.7528 8.19288 31.4981 9.4382C30.9925 9.94382 30.1124 9.97191 29.588 9.48502C28.9981 8.98876 28.9607 7.99625 29.5225 7.45318C30.7678 6.20786 32.0131 4.96255 33.2584 3.70786C33.4363 3.52996 33.661 3.39888 33.9045 3.33333Z" fill="#DF2DB1"/>
<path d="M13.5768 14.5693C14.9625 13.4176 16.7416 12.7715 18.5393 12.7622C21.3202 12.7622 24.1011 12.7622 26.8727 12.7622C28.0431 12.7247 29.2228 13.015 30.206 13.6611C30.7678 14.0169 31.236 14.5037 31.7041 14.9719C33.2303 16.4981 34.7659 18.0337 36.2921 19.5599C36.6573 19.9157 37.0225 20.2996 37.2285 20.7772C37.8371 22.0506 37.4625 23.7079 36.3483 24.5787C35.1498 25.5805 33.2303 25.4682 32.1255 24.3914C30.7865 23.0712 29.4757 21.7322 28.1461 20.412C27.8652 20.1311 27.4719 19.9813 27.0787 19.9813C23.5487 19.9719 20.0187 19.9813 16.4888 19.9813C14.9625 21.264 13.4363 22.5468 11.9007 23.8296C11.3296 24.3165 10.7303 24.7659 10.2715 25.3652C8.96067 27.0131 8.64232 29.382 9.45693 31.3202C10.103 32.912 11.4794 34.176 13.1086 34.7097C13.2491 35.5618 13.5487 36.3858 14.0075 37.1161C13.2772 37.0693 12.4064 37.3034 11.8071 36.7509C10.6648 35.6367 9.55056 34.4944 8.4176 33.3708C6.26405 33.3614 4.11985 33.3708 1.96629 33.3708C1.5824 33.3708 1.17041 33.4082 0.805243 33.2303C0.365169 33.015 0.0842697 32.5843 0 32.1161V16.8165C0.0842697 16.1236 0.702247 15.5524 1.40449 15.5618C5.11236 15.5618 8.82022 15.5618 12.5281 15.5618C12.8652 15.2247 13.2022 14.8783 13.5768 14.5693Z" fill="#F6F6F7"/>
<path d="M39.1011 18.4738C41.5824 18.4738 44.0543 18.4738 46.5356 18.4738C47.2191 18.455 47.809 19.0075 47.9401 19.6723V35.0187C47.8465 35.7022 47.2378 36.2734 46.545 36.264C44.6723 36.2734 42.7996 36.264 40.927 36.264C40.7397 36.2734 40.5056 36.2172 40.3652 36.3764C37.2472 38.9981 34.1199 41.6105 31.0019 44.2322C30.2341 44.897 29.1479 45.1592 28.1648 44.9063C26.9569 44.6161 25.9925 43.5674 25.8146 42.3408C25.6461 41.3951 25.9832 40.412 26.6011 39.691C25.9832 40.1779 25.3933 40.7022 24.7847 41.1985C24.0824 41.8071 23.1086 42.0786 22.2004 41.9195C20.9738 41.7322 19.9345 40.749 19.6536 39.5505C19.382 38.4831 19.7285 37.3033 20.515 36.5449C19.8315 36.9944 18.9888 37.2284 18.1648 37.088C16.8914 36.9007 15.8053 35.8614 15.5618 34.588C15.3464 33.5393 15.7116 32.4063 16.4794 31.676C15.6742 32.2378 14.6255 32.4532 13.6798 32.1535C12.4157 31.7884 11.47 30.5711 11.4326 29.2603C11.3858 28.2771 11.8352 27.294 12.603 26.676C14.1573 25.3932 15.6742 24.073 17.2378 22.809C20.3464 22.7996 23.4551 22.7996 26.5637 22.809C27.5375 23.8015 28.53 24.7846 29.5131 25.7678C29.9251 26.1704 30.309 26.6011 30.7772 26.9382C31.8539 27.7434 33.2116 28.1554 34.5599 28.0992C35.8333 28.0618 37.0787 27.5936 38.0712 26.7977C39.2697 25.8427 40.0843 24.4007 40.2715 22.8745C40.4775 21.3202 40.0375 19.7191 39.1011 18.4738Z" fill="#F6F6F7"/>
</g>
<defs>
<clipPath id="clip0_195_418">
<rect width="47.9401" height="45" fill="white"/>
</clipPath>
</defs>
</svg>
